<svg width="333" height="264" viewBox="0 0 333 264" fill="none" xmlns="http://www.w3.org/2000/svg">
<path d="M125.901 6.1043C133.38 5.1841 151.724 6.91785 158.847 8.36385C189.351 14.5567 220.23 33.2563 237.542 59.4137C233.796 61.4022 229.853 63.2492 226.19 65.3392C181.775 90.6827 138.259 117.948 92.1885 140.265C73.2385 150.216 32.691 166.202 11.5855 164.924C8.75595 158.773 6.11067 145.005 5.76627 138.42C3.86105 105.376 15.2714 72.9465 37.448 48.3758C60.302 23.3036 92.0368 8.13777 125.901 6.1043Z" fill="#FEFEFE"/>
<path d="M251.195 83.67L251.538 83.9362C251.918 85.4132 252.943 87.9905 253.49 89.557C254.575 92.6805 255.567 95.836 256.465 99.0188C261.715 117.607 262.497 137.172 258.747 156.12C252.7 188.263 232.166 218.139 205.123 236.313C174.65 256.792 140.266 262.215 104.579 255.447C100.149 254.462 94.7068 252.5 90.6243 251.825C104.987 236.39 117.726 219.166 131.997 203.623C139.324 195.644 146.655 187.215 154.107 179.388C168.759 164.277 183.594 149.345 198.609 134.594C205.694 127.571 213.444 119.71 220.592 112.906L236.941 97.5287C239.747 94.9302 249.697 86.442 251.195 83.67Z" fill="#FEFEFE"/>
<path d="M323.587 13.7194C323.86 14.1902 323.86 14.1685 323.955 14.7013C322.137 16.1647 319.938 17.4345 318.063 18.9383L267.105 60.2962C246.322 76.8757 225.867 93.862 205.751 111.245C191.124 123.947 176.934 137.264 162.227 149.899C161.26 150.73 160.295 151.584 159.351 152.441L64.807 239.428C56.8107 235.089 47.3242 226.054 40.8225 219.648C34.3432 212.839 25.4355 202.711 20.4939 194.725C27.006 193.856 41.4628 188.26 47.6688 185.237C96.641 161.382 142.162 128.971 187.288 98.7045C209.049 84.1682 230.952 69.8465 252.995 55.741C260.005 51.3513 267.07 47.0505 274.19 42.8392C288.523 34.2015 302.825 25.87 317.392 17.6401C319.407 16.5023 321.722 15.0781 323.587 13.7194Z" fill="#FEFEFE"/>
</svg>
